#!OML:ASF I:\Actors\actors\Patient Classification 1\Patient 1\Session 1\Subject1.ASF
:FULLY-SPECIFIED
:DEGREES
612
root -0.399833 17.8331 7.55623 23.3989 0.0115614 -7.39076
lowerback 15.6051 -0.0171315 7.09189
upperback -4.53176 1.6002 0.922714
thorax -13.7708 0.186419 -3.41612
lowerneck -21.6841 -3.40733 -1.19022
upperneck 4.48451 -4.80274 5.58439
head 4.95455 -1.96644 1.46949
rclavicle -1.90833e-014 -8.74653e-015
rhumerus -1.72055 -33.5385 -14.8783
rradius 32.4707
rwrist 35.6797
rhand 11.3679 -22.7416
rfingers 7.12502
rthumb 36.4226 -48.9532
lclavicle -1.90833e-014 -8.74653e-015
lhumerus 15.8131 36.6583 17.0189
lradius 26.4355
lwrist -30.7336
lhand -22.0491 -17.3489
lfingers 7.12502
lthumb 4.36138 12.5862
rfemur -21.4429 33.2912 13.8694
rtibia -0.689798
rfoot -9.67268 -33.7918
rtoes 7.68687
lfemur 159.507 230.84 186.741
ltibia -4.58287
lfoot 335.587 -301.758
ltoes 15.1413
613
root -0.402944 17.8244 7.6104 23.0587 -0.203977 -7.29469
lowerback 15.3139 0.00245391 7.03641
upperback -4.81226 1.58902 0.80394
thorax -13.9227 0.167448 -3.51041
lowerneck -21.3038 -3.40182 -1.19483
upperneck 5.04599 -4.82708 5.61662
head 5.07789 -1.97039 1.47809
rclavicle -2.98177e-016 1.07344e-014
rhumerus -5.68669 -29.9789 -12.5523
rradius 35.015
rwrist 32.4625
rhand 11.6682 -22.6586
rfingers 7.12502
rthumb 36.7068 -48.7983
lclavicle -2.98177e-016 1.07344e-014
lhumerus 10.5469 32.8148 12.4373
lradius 29.3095
lwrist -26.4536
lhand -22.0017 -17.6494
lfingers 7.12502
lthumb 4.40711 12.2847
rfemur -20.7202 32.8396 14.3277
rtibia -0.609343
rfoot -9.77262 -33.0561
rtoes 7.0678
lfemur 160.448 231.026 185.803
ltibia -4.52436
lfoot 335.676 -301.598
ltoes 14.5976
614
root -0.406739 17.8153 7.66304 22.7127 -0.391288 -7.16811
lowerback 14.9892 0.022008 6.95283
upperback -5.09703 1.57 0.69155
thorax -14.0606 0.148108 -3.57907
lowerneck -20.9127 -3.4052 -1.22508
upperneck 5.66069 -4.86418 5.68547
head 5.21827 -1.97742 1.501
rclavicle 8.15017e-015 -2.78299e-015
rhumerus -9.36898 -26.6982 -10.6753
rradius 37.6978
rwrist 29.6155
rhand 11.8801 -22.4892
rfingers 7.12502
rthumb 36.9073 -48.5775
lclavicle 8.15017e-015 -2.78299e-015
lhumerus 5.91003 29.4385 8.89732
lradius 32.4093
lwrist -22.8844
lhand -21.85 -18.0036
lfingers 7.12502
lthumb 4.55361 11.9274
rfemur -19.9982 32.4612 14.7092
rtibia -0.55865
rfoot -9.95186 -32.439
rtoes 6.58672
lfemur 161.399 231.244 184.835
ltibia -4.4762
lfoot 335.69 -301.466
ltoes 14.1597
615
root -0.410942 17.8063 7.71398 22.3722 -0.55681 -7.02983
lowerback 14.6131 0.0406256 6.85028
upperback -5.38485 1.54388 0.596249
thorax -14.1718 0.129297 -3.61494
lowerneck -20.5164 -3.41097 -1.25239
upperneck 6.33155 -4.90753 5.73892
head 5.37495 -1.98747 1.5179
rclavicle -6.55989e-015 -9.93923e-015
rhumerus -12.8237 -23.694 -9.16098
rradius 40.5099
rwrist 27.0972
rhand 12.0132 -22.2322
rfingers 7.12502
rthumb 37.0332 -48.288
lclavicle -6.55989e-015 -9.93923e-015
lhumerus 1.71161 26.5844 6.11851
lradius 35.6472
lwrist -19.9847
lhand -21.5477 -18.3734
lfingers 7.12502
lthumb 4.84555 11.5512
rfemur -19.2923 32.1353 15.0381
rtibia -0.532973
rfoot -10.1584 -31.91
rtoes 6.18353
lfemur 162.362 231.476 183.852
ltibia -4.44725
lfoot 335.523 -301.376
ltoes 13.951
616
root -0.415103 17.7976 7.76284 22.0444 -0.706803 -6.90765
lowerback 14.1863 0.0581979 6.76075
upperback -5.67834 1.51782 0.519519
thorax -14.2586 0.111449 -3.63633
lowerneck -20.1273 -3.42003 -1.28954
upperneck 7.07435 -4.95733 5.78881
head 5.55563 -1.99951 1.5344
rclavicle -1.00386e-014 1.86858e-014
rhumerus -16.0172 -20.9658 -7.94045
rradius 43.3012
rwrist 24.8523
rhand 12.0252 -21.8631
rfingers 7.12502
rthumb 37.0445 -47.9161
lclavicle -1.00386e-014 1.86858e-014
lhumerus -2.16192 24.2414 3.89209
lradius 38.9574
lwrist -17.6394
lhand -21.0971 -18.7114
lfingers 7.12502
lthumb 5.2806 11.2028
rfemur -18.6176 31.8605 15.3461
rtibia -0.523303
rfoot -10.3503 -31.4517
rtoes 5.79813
lfemur 163.333 231.701 182.89
ltibia -4.44227
lfoot 335.172 -301.324
ltoes 13.9791
617
root -0.418908 17.7894 7.80926 21.7278 -0.848195 -6.81836
lowerback 13.7293 0.0760243 6.70842
upperback -5.98334 1.49963 0.455192
thorax -14.3391 0.0946557 -3.66629
lowerneck -19.7364 -3.43683 -1.34277
upperneck 7.88374 -5.02062 5.85537
head 5.75845 -2.01586 1.55738
rclavicle -1.54058e-014 1.31198e-014
rhumerus -18.9887 -18.5199 -6.95735
rradius 46.0498
rwrist 22.8269
rhand 11.9444 -21.4229
rfingers 7.12502
rthumb 36.9681 -47.4956
lclavicle -1.54058e-014 1.31198e-014
lhumerus -5.78823 22.3362 2.05406
lradius 42.2955
lwrist -15.7069
lhand -20.5728 -19.0055
lfingers 7.12502
lthumb 5.7868 10.8954
rfemur -17.9759 31.6447 15.6555
rtibia -0.522228
rfoot -10.5149 -31.0574
rtoes 5.42752
lfemur 164.304 231.905 181.97
ltibia -4.45584
lfoot 334.685 -301.301
ltoes 14.1958
618
root -0.422116 17.7817 7.85308 21.4163 -0.986281 -6.75996
lowerback 13.2598 0.0948697 6.69684
upperback -6.29903 1.49113 0.395397
thorax -14.4229 0.0783984 -3.71648
lowerneck -19.3329 -3.46165 -1.3959
upperneck 8.73512 -5.10018 5.93126
head 5.97353 -2.03863 1.58194
rclavicle -7.95139e-016 -9.14409e-015
rhumerus -21.7707 -16.3722 -6.16345
rradius 48.7461
rwrist 20.987
rhand 11.8285 -20.9432
rfingers 7.12502
rthumb 36.8584 -47.0441
lclavicle -7.95139e-016 -9.14409e-015
lhumerus -9.20524 20.7901 0.484281
lradius 45.5971
lwrist -14.0964
lhand -20.0683 -19.3139
lfingers 7.12502
lthumb 6.27389 10.5732
rfemur -17.3603 31.4754 15.9738
rtibia -0.521319
rfoot -10.6621 -30.7082
rtoes 5.08857
lfemur 165.259 232.083 181.095
ltibia -4.47033
lfoot 334.145 -301.29
ltoes 14.5003
619
root -0.424516 17.7745 7.89435 21.101 -1.12512 -6.71665
lowerback 12.7962 0.115136 6.71945
upperback -6.62283 1.49098 0.327972
thorax -14.5186 0.0614056 -3.79686
lowerneck -18.9046 -3.49136 -1.43541
upperneck 9.59481 -5.19269 6.00981
head 6.18749 -2.06714 1.60448
rclavicle -2.98177e-016 -8.74653e-015
rhumerus -24.4183 -14.5358 -5.51861
rradius 51.4155
rwrist 19.3256
rhand 11.7211 -20.4181
rfingers 7.12502
rthumb 36.7569 -46.545
lclavicle -2.98177e-016 -8.74653e-015
lhumerus -12.4259 19.5044 -0.903359
lradius 48.8113
lwrist -12.7147
lhand -19.6498 -19.6622
lfingers 7.12502
lthumb 6.67787 10.2125
rfemur -16.7556 31.3218 16.2972
rtibia -0.516954
rfoot -10.8072 -30.3748
rtoes 4.79152
lfemur 166.197 232.242 180.244
ltibia -4.47387
lfoot 333.664 -301.267
ltoes 14.7484
620
root -0.426243 17.7675 7.93328 20.7733 -1.26501 -6.67323
lowerback 12.3538 0.1397 6.7672
upperback -6.95051 1.50091 0.24377
thorax -14.6306 0.0444393 -3.91334
lowerneck -18.4408 -3.52941 -1.47361
upperneck 10.4289 -5.29956 6.10289
head 6.38839 -2.10242 1.6309
rclavicle 8.15017e-015 -3.97569e-015
rhumerus -27.0164 -13.0208 -4.982
rradius 54.1352
rwrist 17.8656
rhand 11.6713 -19.8489
rfingers 7.12502
rthumb 36.7098 -45.9878
lclavicle 8.15017e-015 -3.97569e-015
lhumerus -15.4439 18.3958 -2.14673
lradius 51.9278
lwrist -11.4707
lhand -19.3329 -20.0145
lfingers 7.12502
lthumb 6.98377 9.85032
rfemur -16.1463 31.1708 16.6174
rtibia -0.51017
rfoot -10.9628 -30.0463
rtoes 4.55419
lfemur 167.13 232.392 179.389
ltibia -4.46369
lfoot 333.3 -301.221
ltoes 14.8551
621
root -0.427889 17.7612 7.9694 20.4272 -1.41044 -6.60624
lowerback 11.9383 0.173025 6.80286
upperback -7.26745 1.51964 0.142812
thorax -14.7452 0.0313113 -4.04459
lowerneck -17.9573 -3.57445 -1.52056
upperneck 11.2138 -5.41428 6.20462
head 6.5709 -2.14247 1.66159
rclavicle -1.10325e-014 -8.34896e-015
rhumerus -29.6227 -11.8536 -4.51437
rradius 56.9827
rwrist 16.6405
rhand 11.7315 -19.2511
rfingers 7.12502
rthumb 36.7667 -45.3755
lclavicle -1.10325e-014 -8.34896e-015
lhumerus -18.2505 17.4562 -3.24138
lradius 54.954
lwrist -10.346
lhand -19.0744 -20.3185
lfingers 7.12502
lthumb 7.23337 9.53788
rfemur -15.5325 31.0191 16.9075
rtibia -0.496445
rfoot -11.1216 -29.7242
rtoes 4.35206
lfemur 168.063 232.537 178.502
ltibia -4.4358
lfoot 333.041 -301.154
ltoes 14.8148
